# xmcd
#
# Track frame offsets: 
#        150
#        12741
#        23013
#        34491
#        46909
#        58288
#        68881
#        81954
#        91557
#        102406
#        116860
#        129142
#        138909
#        149861
#        160461
#        170420
#        179519
#        190140
#        201097
#        213597
#
# Disc length: 3005 seconds
#
# Revision: 2
# Processed by: cddbd v1.5.2PL0 Copyright (c) Steve Scherf et al.
# Submitted via: ExactAudioCopy v1.1
#
DISCID=2d0bbb14
DTITLE=Various Artist - Sun Records. The Essential Collection (disc2:
DTITLE=Cotton Crop Country)
DYEAR=2010
DGENRE=Country
TTITLE0=Johnny Cash - Folsom Prison Blues
TTITLE1=Carl Perkins - Blue Suede Shoes
TTITLE2=Charlie Feathers - Defrost Your Heart
TTITLE3=Harmonica Frank Floyd - Howlin' Tom Cat
TTITLE4=Jeanne Newman - Thanks A Lot
TTITLE5=Sleepy LaBeef - Blackland Farmer
TTITLE6=Jimmie Davis - Where The Old Red River Flows
TTITLE7=Charlie Feathers - Runnin' Around
TTITLE8=Charlie Rich - Who Will The Next Fool Be
TTITLE9=Dave Dudley - Driver
TTITLE10=Johnny Cash - I Walk The Line
TTITLE11=Jeannie C. Riley - Girl Most Likely
TTITLE12=Tray Pendarvis And The Swampers - Southbound Line
TTITLE13=Webb Pierce - In The Jailhouse Now
TTITLE14=Dane Stinit - Sweet Country Girl
TTITLE15=Doug Poindexter and The Starlite Wranglers - My Kind Of Carryin
TTITLE15=' On
TTITLE16=Onie Wheeler - Jump Right Out Of This Jukebox
TTITLE17=Barbara Pittman - Two Young Fools In Love
TTITLE18=Maggie Sue Wimberley - How Long
TTITLE19=Roy Drusky - Another
EXTD=Compilation of 3CDs - Classic Rock, Blues and Country from Sun Re
EXTD=cords. Released in 2010.
EXTT0=
EXTT1=
EXTT2=
EXTT3=
EXTT4=
EXTT5=
EXTT6=
EXTT7=
EXTT8=
EXTT9=
EXTT10=
EXTT11=
EXTT12=
EXTT13=
EXTT14=
EXTT15=
EXTT16=
EXTT17=
EXTT18=
EXTT19=
PLAYORDER=
